<svg width="64" height="64" viewBox="0 0 64 64" fill="none" xmlns="http://www.w3.org/2000/svg">
  <!-- Escudo azul oscuro -->
  <path d="M32 8L10 22V36C10 52 32 62 32 62C32 62 54 52 54 36V22L32 8Z" fill="#0F3A7D"/>
  
  <!-- Escudo interior azul -->
  <path d="M32 12L16 23V36C16 48 32 58 32 58C32 58 48 48 48 36V23L32 12Z" fill="#1E5BA8"/>
  
  <!-- Burbuja de chat simplificada -->
  <rect x="18" y="20" width="24" height="18" rx="3" fill="#0099FF"/>
  <polygon points="34,38 40,42 38,38" fill="#0099FF"/>
  
  <!-- Puntos del mensaje -->
  <circle cx="22" cy="27" r="1.5" fill="white"/>
  <circle cx="27" cy="27" r="1.5" fill="white"/>
  <circle cx="32" cy="27" r="1.5" fill="white"/>
</svg>
